<?xml version="1.0" standalone="no"?>
<!DOCTYPE svg PUBLIC "-//W3C//DTD SVG 20010904//EN"
 "http://www.w3.org/TR/2001/REC-SVG-20010904/DTD/svg10.dtd">
<svg version="1.0" xmlns="http://www.w3.org/2000/svg"
 width="800.000000pt" height="600.000000pt" viewBox="0 0 800.000000 600.000000"
 preserveAspectRatio="xMidYMid meet">

<g transform="translate(0.000000,600.000000) scale(0.100000,-0.100000)"
fill="#000000" stroke="none">
<path d="M4870 3664 c-87 -23 -315 -118 -567 -234 -173 -80 -235 -105 -244
-96 -9 8 -9 6 0 -11 23 -45 3 -121 -38 -143 -47 -24 -102 -7 -126 40 -35 68
-5 142 65 161 30 7 27 8 -21 5 -31 -3 -71 -12 -89 -21 -17 -9 -45 -15 -61 -13
-29 3 -34 11 -87 128 -39 86 -63 126 -76 128 -35 7 -39 -11 -26 -122 7 -59 11
-109 8 -111 -10 -11 -398 49 -793 121 -225 42 -426 77 -445 80 -19 2 72 -24
202 -57 219 -57 237 -63 228 -80 -9 -16 -5 -20 27 -28 21 -6 168 -46 328 -90
261 -71 290 -77 301 -63 11 15 16 15 68 -2 48 -14 57 -21 54 -38 -2 -17 4 -23
28 -30 55 -14 61 -93 11 -150 l-32 -37 -230 30 c-126 16 -236 28 -244 27 -8
-2 90 -21 218 -42 l231 -39 -6 -33 c-6 -31 -5 -32 53 -55 53 -21 74 -23 233
-24 l175 0 90 41 c64 30 114 45 174 54 47 6 101 18 120 25 39 14 127 21 424
31 173 6 187 6 187 -10 0 -10 14 -31 31 -48 28 -28 34 -30 82 -25 56 6 141 32
170 52 15 11 12 12 -26 8 -56 -7 -85 9 -104 54 -20 49 -10 96 28 127 38 32 21
34 -63 5 l-62 -20 -100 27 c-56 15 -105 31 -109 34 -4 4 20 17 55 30 108 39
213 97 248 136 63 73 74 144 29 192 -20 22 -57 27 -161 22 -27 -1 -38 3 -38
13 0 29 107 49 139 25 14 -11 14 -10 1 4 -38 39 -158 49 -260 22z m-133 -130
c-2 -3 -13 -6 -25 -9 -11 -2 -34 -11 -51 -19 -37 -20 -51 -20 -51 -2 0 14 36
32 53 28 4 -1 7 3 7 10 0 6 3 9 6 6 3 -4 17 0 32 8 24 12 27 12 30 -2 2 -8 2
-18 -1 -20z m-237 -84 c0 -11 -79 -59 -107 -65 -10 -2 -43 -16 -73 -32 -48
-26 -158 -47 -138 -28 10 10 158 74 158 68 0 -2 25 10 55 27 30 17 55 29 55
25 0 -3 8 -1 18 4 22 13 32 14 32 1z"/>
<path d="M2308 3583 c7 -3 16 -2 19 1 4 3 -2 6 -13 5 -11 0 -14 -3 -6 -6z"/>
<path d="M5340 3086 c0 -33 3 -36 28 -36 15 0 33 5 40 12 6 6 69 16 139 23
l128 11 -145 8 c-80 4 -155 10 -167 13 -21 5 -23 1 -23 -31z"/>
<path d="M3048 3063 c6 -2 18 -2 25 0 6 3 1 5 -13 5 -14 0 -19 -2 -12 -5z"/>
</g>
</svg>
